<?xml version="1.0" encoding="UTF-8"?>
<svg fill="none" viewBox="0 0 24 24" xmlns="http://www.w3.org/2000/svg">
<path d="m14.25 7.75c0 1.2426-1.0074 2.25-2.25 2.25v1.5c2.0711 0 3.75-1.6789 3.75-3.75h-1.5zm-2.25 2.25c-1.2426 0-2.25-1.0074-2.25-2.25h-1.5c0 2.0711 1.6789 3.75 3.75 3.75v-1.5zm-2.25-2.25c0-1.2426 1.0074-2.25 2.25-2.25v-1.5c-2.0711 0-3.75 1.6789-3.75 3.75h1.5zm2.25-2.25c1.2426 0 2.25 1.0074 2.25 2.25h1.5c0-2.0711-1.6789-3.75-3.75-3.75v1.5zm-3 9h6v-1.5h-6v1.5zm6 4.5h-6v1.5h6v-1.5zm-6 0c-1.2426 0-2.25-1.0074-2.25-2.25h-1.5c0 2.0711 1.6789 3.75 3.75 3.75v-1.5zm8.25-2.25c0 1.2426-1.0074 2.25-2.25 2.25v1.5c2.0711 0 3.75-1.6789 3.75-3.75h-1.5zm-2.25-2.25c1.2426 0 2.25 1.0074 2.25 2.25h1.5c0-2.0711-1.6789-3.75-3.75-3.75v1.5zm-6-1.5c-2.0711 0-3.75 1.6789-3.75 3.75h1.5c0-1.2426 1.0074-2.25 2.25-2.25v-1.5z" fill="url(#b)"/>
<path d="m7.7521 10.389c-0.15773-0.2534-0.45368-0.3887-0.75214-0.3887-1.2426 0-2.25-1.0074-2.25-2.25s1.0074-2.25 2.25-2.25c0.29846 0 0.59441-0.13527 0.75214-0.38865 0.00698-0.01121 0.01399-0.02239 0.02106-0.03353 0.2626-0.41451 0.12955-1.0014-0.3582-1.0551-0.13627-0.015-0.27473-0.0227-0.415-0.0227-2.0711 0-3.75 1.6789-3.75 3.75s1.6789 3.75 3.75 3.75c0.14027 0 0.27873-0.0077 0.415-0.0227 0.48775-0.0537 0.6208-0.6406 0.3582-1.0551-0.00706-0.0112-0.01408-0.0223-0.02106-0.0335z" fill="url(#a)"/>
<path d="m4.7083 18.317c-0.11352-0.1894-0.3139-0.3169-0.5347-0.3169h-0.17359c-1.2426 0-2.25-1.0074-2.25-2.25s1.0074-2.25 2.25-2.25h0.17359c0.2208 0 0.42118-0.1275 0.5347-0.3169 0.2771-0.4623-0.02361-1.1831-0.5626-1.1831h-0.14569c-2.0711 0-3.75 1.6789-3.75 3.75s1.6789 3.75 3.75 3.75h0.14569c0.539 0 0.8397-0.7208 0.5626-1.1831z" fill="url(#a)"/>
<path d="m16.227 10.422c-0.2626 0.4145-0.1295 1.0014 0.3582 1.0551 0.1363 0.015 0.2747 0.0227 0.415 0.0227 2.0711 0 3.75-1.6789 3.75-3.75s-1.6789-3.75-3.75-3.75c-0.1403 0-0.2787 0.0077-0.415 0.0227-0.4877 0.0537-0.6208 0.64061-0.3582 1.0551 0.0071 0.01114 0.0141 0.02232 0.0211 0.03352 0.1577 0.25338 0.4536 0.38866 0.7521 0.38866 1.2426 0 2.25 1.0074 2.25 2.25s-1.0074 2.25-2.25 2.25c-0.2985 0-0.5944 0.1353-0.7521 0.3887-7e-3 0.0112-0.014 0.0223-0.0211 0.0335z" fill="url(#a)"/>
<path d="m19.292 18.317c-0.2771 0.4623 0.0236 1.1831 0.5626 1.1831h0.1457c2.0711 0 3.75-1.6789 3.75-3.75s-1.6789-3.75-3.75-3.75h-0.1457c-0.539 0-0.8397 0.7208-0.5626 1.1831 0.1135 0.1894 0.3139 0.3169 0.5347 0.3169h0.1736c1.2426 0 2.25 1.0074 2.25 2.25s-1.0074 2.25-2.25 2.25h-0.1736c-0.2208 0-0.4212 0.1275-0.5347 0.3169z" fill="url(#a)"/>
<defs>
<linearGradient id="b" x1="6" x2="18" y1="12.25" y2="12.25" gradientUnits="userSpaceOnUse">
<stop stop-color="#fff" offset="0"/>
<stop stop-color="#FFEF99" offset=".545"/>
<stop stop-color="#fff" offset="1"/>
</linearGradient>
<linearGradient id="a" x1=".25" x2="23.75" y1="11.75" y2="11.75" gradientUnits="userSpaceOnUse">
<stop stop-color="#fff" offset="0"/>
<stop stop-color="#FFEF99" offset=".545"/>
<stop stop-color="#fff" offset="1"/>
</linearGradient>
</defs>
</svg>
