<?xml version="1.0" encoding="UTF-8"?>
<svg fill="none" viewBox="0 0 24 24" xmlns="http://www.w3.org/2000/svg">
<path d="m19.364 10.142v-0.56565c0-0.08464 0-0.12697-5e-4 -0.16277-0.0387-2.7054-2.2225-4.8891-4.9279-4.9279-0.0358-5.2e-4 -0.0781-5.2e-4 -0.1627-5.1e-4h-0.5657m-3.9292 3.6878c-0.45324 1.0398-0.22385 2.2511 0.57815 3.0531l2.3969 2.3968c0.802 0.8021 2.0132 1.0315 3.053 0.5782 1.0398-0.4532 2.2511-0.2238 3.0531 0.5782l1.4582 1.4582c0.0706 0.0707 0.106 0.106 0.1346 0.1371 0.703 0.7652 0.703 1.9413 0 2.7064-0.0286 0.0312-0.064 0.0665-0.1346 0.1371l-0.8863 0.8864c-0.7218 0.7218-1.7624 1.0248-2.7588 0.8033-6.7896-1.5088-12.092-6.8113-13.601-13.601-0.22144-0.99646 0.08157-2.037 0.80336-2.7588l0.88634-0.88634c0.07065-0.07064 0.10597-0.10597 0.13709-0.13456 0.76516-0.70308 1.9413-0.70308 2.7064 0 0.03112 0.02859 0.06645 0.06392 0.13709 0.13456l1.4582 1.4582c0.80205 0.80205 1.0314 2.0133 0.5782 3.0531z" stroke="url(#a)" stroke-linecap="round" stroke-width="1.5"/>
<defs>
<linearGradient id="a" x1="3" x2="20.979" y1="11.99" y2="11.99" gradientUnits="userSpaceOnUse">
<stop stop-color="#fff" offset="0"/>
<stop stop-color="#FFEF99" offset=".545"/>
<stop stop-color="#fff" offset="1"/>
</linearGradient>
</defs>
</svg>
