<?xml version="1.0" encoding="UTF-8"?>
<svg fill="none" viewBox="0 0 24 24" xmlns="http://www.w3.org/2000/svg">
<path d="m2.767 15.82 0.71329-0.2318-0.71329 0.2318zm-1.1105-6.1681 0.72131 0.20546-0.72131-0.20546zm4.6372-4.686-0.44084-0.60676 0.44084 0.60676zm-4.5239 4.3374 0.70431 0.25776-0.70431-0.25776zm4.0209 12.375-0.4183 0.6225 0.4183-0.6225zm-0.29659-0.2155-0.46279 0.5902 0.46279-0.5902zm15.739-5.6428-0.7133-0.2318 0.7133 0.2318zm-2.7271 5.6428 0.4627 0.5902-0.4627-0.5902zm-0.2966 0.2155 0.4183 0.6225-0.4183-0.6225zm-0.5031-16.712 0.4409-0.60676-0.4409 0.60676zm4.524 4.3374-0.7043 0.25776 0.7043-0.25776zm0.1133 0.34866-0.7214 0.20546 0.7214-0.20546zm-10.16-7.6482-0.0275 0.7495 0.0275-0.7495zm-0.3666 0 0.0275 0.7495-0.0275-0.7495zm-1.8167 15.066c-0.41421 0-0.74999 0.3357-0.74999 0.75 0 0.4142 0.33578 0.75 0.74999 0.75v-1.5zm4 1.5c0.4142 0 0.75-0.3358 0.75-0.75 0-0.4143-0.3358-0.75-0.75-0.75v1.5zm-10.52-2.9818c-0.51436-1.583-0.88075-2.7139-1.073-3.6321-0.18864-0.9008-0.19271-1.5257-0.02949-2.0988l-1.4426-0.41092c-0.25422 0.89249-0.21236 1.7842 0.003953 2.8172 0.2127 1.0158 0.61028 2.2361 1.1146 3.7881l1.4266-0.4635zm2.3726-11.229c-1.3202 0.95919-2.3592 1.7128-3.1283 2.4096-0.78218 0.70858-1.3402 1.4053-1.6591 2.2768l1.4086 0.51552c0.20478-0.55955 0.57537-1.0627 1.2575-1.6806 0.69519-0.62976 1.6563-1.3293 3.0029-2.3077l-0.88168-1.2135zm-3.4751 5.4982c0.02846-0.09993 0.06058-0.19879 0.09629-0.29636l-1.4086-0.51552c-0.04831 0.13202-0.091768 0.26576-0.13028 0.40096l1.4426 0.41092zm9.6222 11.921c-1.6645 0-2.8533-0.0011-3.7859-0.1019-0.91509-0.099-1.5106-0.2882-2.0052-0.6205l-0.8366 1.245c0.77026 0.5176 1.6312 0.7533 2.6805 0.8668 1.0318 0.1116 2.3153 0.1106 3.9472 0.1106v-1.5zm-9.9463-5.7265c0.50428 1.552 0.89993 2.773 1.3249 3.7198 0.43219 0.9629 0.92242 1.7089 1.6527 2.2815l0.92558-1.1804c-0.46888-0.3677-0.83288-0.8756-1.2098-1.7153-0.38412-0.8558-0.75244-1.9861-1.2668-3.5691l-1.4266 0.4635zm4.1553 5.0041c-0.08625-0.058-0.17034-0.1191-0.2521-0.1832l-0.92558 1.1804c0.11063 0.0867 0.2244 0.1694 0.34108 0.2478l0.8366-1.245zm14.311-5.4676c-0.5144 1.583-0.8827 2.7133-1.2668 3.5691-0.3769 0.8397-0.7409 1.3476-1.2098 1.7153l0.9255 1.1804c0.7303-0.5726 1.2205-1.3186 1.6527-2.2815 0.425-0.9468 0.8207-2.1678 1.325-3.7198l-1.4266-0.4635zm-8.5198 7.69c1.6319 0 2.9154 1e-3 3.9472-0.1106 1.0493-0.1135 1.9102-0.3492 2.6805-0.8668l-0.8366-1.245c-0.4946 0.3323-1.0901 0.5215-2.0052 0.6205-0.9326 0.1008-2.1214 0.1019-3.7859 0.1019v1.5zm6.0432-2.4056c-0.0818 0.0641-0.1659 0.1252-0.2521 0.1832l0.8366 1.245c0.1167-0.0784 0.2304-0.1611 0.341-0.2478l-0.9255-1.1804zm-0.7777-15.3c1.3466 0.97836 2.3078 1.6779 3.0029 2.3077 0.6822 0.61796 1.0528 1.1211 1.2576 1.6806l1.4086-0.51552c-0.3189-0.87147-0.8769-1.5682-1.6591-2.2768-0.7691-0.69677-1.8081-1.4504-3.1283-2.4096l-0.8817 1.2135zm4.6809 10.479c0.5042-1.552 0.9018-2.7723 1.1145-3.7881 0.2163-1.033 0.2582-1.9247 4e-3 -2.8172l-1.4427 0.41092c0.1633 0.57307 0.1592 1.198-0.0294 2.0988-0.1923 0.9182-0.5587 2.0491-1.073 3.6321l1.4266 0.4635zm-0.4204-6.4907c0.0357 0.09757 0.0678 0.19642 0.0962 0.29636l1.4427-0.41092c-0.0385-0.1352-0.082-0.26894-0.1303-0.40096l-1.4086 0.51552zm-3.3788-5.2019c-1.3202-0.9592-2.358-1.7144-3.2583-2.2306-0.9156-0.52495-1.7507-0.84029-2.6781-0.87431l-0.055 1.499c0.5954 0.02184 1.1885 0.21881 1.987 0.67662 0.8138 0.46655 1.7761 1.1645 3.1227 2.1428l0.8817-1.2135zm-11.413 1.2135c1.3466-0.97836 2.3089-1.6763 3.1227-2.1428 0.79848-0.45781 1.3916-0.65478 1.987-0.67662l-0.055-1.499c-0.9274 0.03402-1.7624 0.34936-2.678 0.87431-0.90034 0.51618-1.9381 1.2714-3.2583 2.2306l0.88168 1.2135zm5.4763-4.3184c-0.1405-0.00516-0.2811-0.00516-0.4216 0l0.055 1.499c0.1038-0.00381 0.2078-0.00381 0.3116 0l0.055-1.499zm-2.2108 17.316h4v-1.5h-4v1.5z" fill="url(#a)"/>
<defs>
<linearGradient id="a" x1="1.5102" x2="22.49" y1="12.264" y2="12.264" gradientUnits="userSpaceOnUse">
<stop stop-color="#fff" offset="0"/>
<stop stop-color="#FFEF99" offset=".545"/>
<stop stop-color="#fff" offset="1"/>
</linearGradient>
</defs>
</svg>
