<?xml version="1.0" encoding="UTF-8"?>
<svg fill="none" viewBox="0 0 24 24" xmlns="http://www.w3.org/2000/svg">
<path d="m12 4.25c-0.4142 0-0.75 0.33579-0.75 0.75s0.3358 0.75 0.75 0.75v-1.5zm8 1.5c0.4142 0 0.75-0.33579 0.75-0.75s-0.3358-0.75-0.75-0.75v1.5zm-8 12.5c-0.4142 0-0.75 0.3358-0.75 0.75s0.3358 0.75 0.75 0.75v-1.5zm8 1.5c0.4142 0 0.75-0.3358 0.75-0.75s-0.3358-0.75-0.75-0.75v1.5zm-8-7c0.4142 0 0.75-0.3358 0.75-0.75s-0.3358-0.75-0.75-0.75v1.5zm-8-1.5c-0.41421 0-0.75 0.3358-0.75 0.75s0.33579 0.75 0.75 0.75v-1.5zm8-5.5h8v-1.5h-8v1.5zm0 14h8v-1.5h-8v1.5zm0-8.5h-8v1.5h8v-1.5zm-8.75-6.25c0 1.5188 1.2312 2.75 2.75 2.75v-1.5c-0.69036 0-1.25-0.55964-1.25-1.25h-1.5zm2.75 2.75c1.5188 0 2.75-1.2312 2.75-2.75h-1.5c0 0.69036-0.55964 1.25-1.25 1.25v1.5zm2.75-2.75c0-1.5188-1.2312-2.75-2.75-2.75v1.5c0.69036 0 1.25 0.55964 1.25 1.25h1.5zm-2.75-2.75c-1.5188 0-2.75 1.2312-2.75 2.75h1.5c0-0.69036 0.55964-1.25 1.25-1.25v-1.5zm-2.75 16.75c0 1.5188 1.2312 2.75 2.75 2.75v-1.5c-0.69036 0-1.25-0.5596-1.25-1.25h-1.5zm2.75 2.75c1.5188 0 2.75-1.2312 2.75-2.75h-1.5c0 0.6904-0.55964 1.25-1.25 1.25v1.5zm2.75-2.75c0-1.5188-1.2312-2.75-2.75-2.75v1.5c0.69036 0 1.25 0.5596 1.25 1.25h1.5zm-2.75-2.75c-1.5188 0-2.75 1.2312-2.75 2.75h1.5c0-0.6904 0.55964-1.25 1.25-1.25v-1.5zm14.75-4.25c0-1.5188-1.2312-2.75-2.75-2.75v1.5c0.6904 0 1.25 0.5596 1.25 1.25h1.5zm-2.75-2.75c-1.5188 0-2.75 1.2312-2.75 2.75h1.5c0-0.6904 0.5596-1.25 1.25-1.25v-1.5zm-2.75 2.75c0 1.5188 1.2312 2.75 2.75 2.75v-1.5c-0.6904 0-1.25-0.5596-1.25-1.25h-1.5zm2.75 2.75c1.5188 0 2.75-1.2312 2.75-2.75h-1.5c0 0.6904-0.5596 1.25-1.25 1.25v1.5z" fill="url(#a)"/>
<defs>
<linearGradient id="a" x1="4" x2="20" y1="12" y2="12" gradientUnits="userSpaceOnUse">
<stop stop-color="#fff" offset="0"/>
<stop stop-color="#FFEF99" offset=".545"/>
<stop stop-color="#fff" offset="1"/>
</linearGradient>
</defs>
</svg>
