<?xml version="1.0" encoding="UTF-8"?>
<svg fill="none" viewBox="0 0 24 24" xmlns="http://www.w3.org/2000/svg">
<path d="m9 15 5.6569-5.6568m7.3431 2.6568c0 5.5228-4.4772 10-10 10-5.5228 0-10-4.4772-10-10 0-5.5228 4.4772-10 10-10 5.5228 0 10 4.4772 10 10z" stroke="url(#b)" stroke-linecap="round" stroke-width="1.5"/>
<path d="m8 9c0 0.55228 0.44772 1 1 1s1-0.44772 1-1-0.44772-1-1-1-1 0.44772-1 1z" fill="url(#a)"/>
<path d="m14 15c0 0.5523 0.4477 1 1 1s1-0.4477 1-1-0.4477-1-1-1-1 0.4477-1 1z" fill="url(#a)"/>
<defs>
<linearGradient id="b" x1="2" x2="22" y1="12" y2="12" gradientUnits="userSpaceOnUse">
<stop stop-color="#fff" offset="0"/>
<stop stop-color="#FFEF99" offset=".545"/>
<stop stop-color="#fff" offset="1"/>
</linearGradient>
<linearGradient id="a" x1="8" x2="16" y1="12" y2="12" gradientUnits="userSpaceOnUse">
<stop stop-color="#fff" offset="0"/>
<stop stop-color="#FFEF99" offset=".545"/>
<stop stop-color="#fff" offset="1"/>
</linearGradient>
</defs>
</svg>
