<svg width="24" height="24" viewBox="0 0 10 13" class="fill-secondary-normal" xmlns="http://www.w3.org/2000/svg">
<path d="M6.8998 3.4C6.8998 4.44934 6.04915 5.3 4.9998 5.3V6.3C6.60143 6.3 7.8998 5.00163 7.8998 3.4H6.8998ZM4.9998 5.3C3.95046 5.3 3.0998 4.44934 3.0998 3.4H2.0998C2.0998 5.00163 3.39818 6.3 4.9998 6.3V5.3ZM3.0998 3.4C3.0998 2.35066 3.95046 1.5 4.9998 1.5V0.5C3.39818 0.5 2.0998 1.79837 2.0998 3.4H3.0998ZM4.9998 1.5C6.04915 1.5 6.8998 2.35066 6.8998 3.4H7.8998C7.8998 1.79837 6.60143 0.5 4.9998 0.5V1.5ZM3.1998 8.1H6.7998V7.1H3.1998V8.1ZM6.7998 11.9H3.1998V12.9H6.7998V11.9ZM3.1998 11.9C2.15046 11.9 1.2998 11.0493 1.2998 10H0.299805C0.299805 11.6016 1.59818 12.9 3.1998 12.9V11.9ZM8.6998 10C8.6998 11.0493 7.84915 11.9 6.7998 11.9V12.9C8.40143 12.9 9.6998 11.6016 9.6998 10H8.6998ZM6.7998 8.1C7.84915 8.1 8.6998 8.95066 8.6998 10H9.6998C9.6998 8.39837 8.40143 7.1 6.7998 7.1V8.1ZM3.1998 7.1C1.59818 7.1 0.299805 8.39837 0.299805 10H1.2998C1.2998 8.95066 2.15046 8.1 3.1998 8.1V7.1Z" />
</svg>
